<?xml version="1.0" standalone="no"?>
<!DOCTYPE svg PUBLIC "-//W3C//DTD SVG 20010904//EN"
 "http://www.w3.org/TR/2001/REC-SVG-20010904/DTD/svg10.dtd">
<svg version="1.0" xmlns="http://www.w3.org/2000/svg"
 width="500.000000pt" height="500.000000pt" viewBox="0 0 500.000000 500.000000"
 preserveAspectRatio="xMidYMid meet">

<g transform="translate(0.000000,500.000000) scale(0.100000,-0.100000)"
fill="#000000" stroke="none">
<path d="M3727 3839 c7 -7 15 -10 18 -7 3 3 -2 9 -12 12 -14 6 -15 5 -6 -5z"/>
<path d="M3667 3812 c-12 -13 -13 -21 -6 -32 9 -13 10 -12 5 2 -3 11 3 23 17
33 12 8 17 15 11 15 -6 0 -18 -8 -27 -18z"/>
<path d="M3766 3817 c3 -10 9 -15 12 -12 3 3 0 11 -7 18 -10 9 -11 8 -5 -6z"/>
<path d="M3810 3465 c7 -8 20 -15 29 -15 14 0 14 -2 1 -10 -8 -5 -24 -7 -35
-4 -18 4 -18 4 -3 -6 10 -6 26 -10 35 -8 11 2 17 -2 15 -10 -1 -8 2 -11 8 -7
6 4 10 -6 10 -24 0 -17 4 -31 10 -31 5 0 8 12 6 28 -2 15 -1 20 1 12 3 -8 10
-21 15 -27 7 -9 7 -13 -1 -13 -6 0 -11 -10 -11 -22 -1 -20 -2 -21 -13 -7 -14
19 -30 7 -35 -26 -2 -17 -1 -18 8 -5 10 13 11 12 7 -5 -3 -11 -8 -29 -12 -40
-5 -16 -3 -15 7 3 8 12 18 19 23 15 4 -4 5 1 1 12 -17 45 -17 49 2 26 17 -21
20 -22 25 -6 4 9 5 21 2 25 -3 5 -1 11 5 15 11 7 3 52 -13 72 -5 7 -13 11 -17
8 -5 -3 -11 -1 -15 5 -3 5 0 10 7 10 7 0 -4 11 -24 25 -42 28 -56 32 -38 10z"/>
<path d="M3697 3453 c-11 -11 -8 -21 9 -27 14 -5 15 -4 5 8 -9 11 -9 15 1 19
7 3 8 6 2 6 -6 1 -14 -2 -17 -6z"/>
<path d="M3750 3419 c0 -5 5 -7 10 -4 6 3 10 8 10 11 0 2 -4 4 -10 4 -5 0 -10
-5 -10 -11z"/>
<path d="M3851 3374 c0 -11 3 -14 6 -6 3 7 2 16 -1 19 -3 4 -6 -2 -5 -13z"/>
<path d="M3551 3305 c0 -5 6 -21 14 -35 8 -14 14 -20 14 -15 0 6 -6 21 -14 35
-8 14 -14 21 -14 15z"/>
<path d="M3660 3291 c0 -6 4 -13 10 -16 6 -3 7 1 4 9 -7 18 -14 21 -14 7z"/>
<path d="M3710 3230 c8 -5 18 -6 22 -4 4 3 14 2 21 -3 6 -4 25 -8 41 -9 24 -2
26 0 13 8 -10 5 -22 6 -28 3 -5 -4 -15 -3 -22 2 -7 5 -23 10 -37 11 -18 1 -21
-1 -10 -8z"/>
<path d="M3720 3140 c0 -5 5 -10 11 -10 5 0 7 5 4 10 -3 6 -8 10 -11 10 -2 0
-4 -4 -4 -10z"/>
<path d="M3560 3121 c0 -6 4 -13 10 -16 6 -3 7 1 4 9 -7 18 -14 21 -14 7z"/>
<path d="M3768 3123 c7 -3 16 -2 19 1 4 3 -2 6 -13 5 -11 0 -14 -3 -6 -6z"/>
<path d="M3795 3109 c-4 -6 -13 -8 -19 -6 -7 3 -19 2 -26 -3 -7 -4 4 -7 27 -6
28 1 39 5 36 14 -6 15 -10 15 -18 1z"/>
<path d="M3833 3102 c9 -13 -26 -35 -38 -24 -3 4 -5 1 -3 -7 2 -7 -3 -16 -11
-19 -8 -2 -11 -1 -8 4 3 5 -9 10 -26 11 l-32 2 35 -16 c19 -9 43 -15 53 -15
11 1 15 -4 11 -11 -4 -7 -4 -9 1 -5 5 5 15 -1 23 -13 8 -11 20 -18 28 -15 8 3
13 2 11 -2 -3 -12 86 -111 95 -106 15 9 8 26 -8 20 -8 -3 -12 -2 -9 3 3 6 -2
14 -12 19 -14 9 -13 10 9 9 15 -1 26 -4 26 -7 -1 -5 16 -50 28 -74 3 -6 -1 -3
-9 6 -25 31 -27 7 -2 -41 50 -100 57 -269 14 -366 -11 -25 -17 -50 -13 -57 4
-6 3 -8 -4 -5 -5 4 -21 -12 -36 -37 -14 -24 -42 -58 -61 -75 -28 -24 -34 -35
-26 -45 6 -7 8 -16 4 -19 -9 -10 10 -8 25 2 11 7 11 9 -2 14 -9 4 -16 12 -16
18 0 7 8 5 20 -6 11 -10 20 -13 20 -7 0 6 -6 15 -14 19 -12 7 -11 10 2 23 14
13 15 12 9 -3 -11 -30 1 -18 24 23 13 22 27 40 31 40 5 0 6 5 2 12 -4 6 -3 8
4 4 5 -3 12 -1 14 6 3 8 7 6 11 -5 4 -10 2 -16 -5 -14 -6 1 -13 -4 -16 -12 -3
-9 0 -11 8 -6 9 6 9 3 1 -12 -6 -11 -7 -24 -3 -28 4 -5 2 -5 -5 -1 -7 4 -10
13 -6 21 3 8 1 15 -5 15 -16 0 -22 -26 -9 -41 10 -11 9 -11 -5 0 -15 11 -17 9
-15 -18 1 -17 -2 -31 -8 -32 -5 -1 -22 -10 -37 -20 -29 -21 -43 -25 -33 -9 3
6 0 10 -7 10 -11 0 -10 2 0 9 11 7 11 9 -1 14 -8 3 -23 0 -34 -8 -13 -10 -14
-13 -3 -12 8 1 16 -2 18 -7 1 -6 -10 -12 -25 -14 -15 -2 -30 -6 -33 -9 -3 -3
14 -3 36 0 23 2 46 2 53 -2 6 -4 -4 -7 -23 -8 -34 -1 -82 -20 -73 -30 3 -2 15
1 27 7 11 6 26 9 33 6 7 -2 2 -8 -10 -11 -13 -4 -23 -11 -23 -16 0 -5 11 -3
25 3 16 7 24 17 20 26 -4 12 -2 12 8 3 11 -9 17 -8 26 2 6 8 7 17 3 21 -4 5 0
6 8 5 21 -5 82 42 75 59 -2 7 -1 11 4 7 12 -7 60 51 77 92 8 18 11 40 8 50 -5
14 -4 15 4 4 14 -19 25 4 47 97 19 79 17 231 -4 256 -6 7 -8 15 -5 18 9 10
-38 108 -49 101 -6 -3 -7 -1 -3 5 6 10 -38 92 -50 92 -3 0 -2 -5 2 -12 4 -7 3
-8 -4 -4 -7 4 -12 13 -12 19 0 7 -15 27 -34 45 l-34 32 -33 -27 c-25 -21 -31
-23 -26 -10 4 10 3 16 -2 13 -5 -3 -14 1 -21 8 -9 12 -6 15 17 14 63 -1 65 5
11 44 -17 12 -28 17 -25 10z m47 -45 c0 -8 -4 -7 -11 3 -8 11 -12 12 -16 2 -2
-6 -9 -10 -14 -7 -5 3 -19 1 -31 -5 -22 -11 -22 -10 -4 4 11 9 26 16 34 16 7
0 10 5 6 11 -4 8 0 8 15 0 11 -7 21 -17 21 -24z m80 -75 c0 -3 -8 2 -18 11
-20 18 -32 13 -32 -12 0 -11 3 -12 8 -5 5 9 10 8 19 -1 10 -10 9 -15 -4 -20
-11 -3 -21 1 -27 12 -15 27 -15 52 1 46 9 -4 11 0 6 13 -4 13 2 9 20 -10 15
-16 27 -31 27 -34z m63 -97 c-3 -9 -8 -14 -10 -11 -3 3 -2 9 2 15 9 16 15 13
8 -4z m34 -277 c-3 -7 -5 -2 -5 12 0 14 2 19 5 13 2 -7 2 -19 0 -25z m-24
-168 c3 -11 1 -18 -4 -14 -5 3 -9 12 -9 20 0 20 7 17 13 -6z m42 -10 c3 -6 -1
-7 -9 -4 -18 7 -21 14 -7 14 6 0 13 -4 16 -10z"/>
<path d="M3926 2262 c-2 -4 -1 -14 4 -22 7 -11 9 -9 7 8 -1 24 -3 26 -11 14z"/>
<path d="M3735 2170 c27 -12 43 -12 25 0 -8 5 -22 9 -30 9 -10 0 -8 -3 5 -9z"/>
<path d="M3715 2150 c11 -5 27 -9 35 -9 9 0 8 4 -5 9 -11 5 -27 9 -35 9 -9 0
-8 -4 5 -9z"/>
<path d="M3763 2116 c0 -8 6 -12 14 -9 7 3 10 9 7 14 -8 14 -21 11 -21 -5z"/>
<path d="M1567 1733 c-4 -3 -7 -84 -7 -178 0 -166 1 -172 23 -193 22 -20 66
-29 79 -16 12 11 -5 44 -23 44 -18 0 -19 10 -19 175 l0 175 -23 0 c-13 0 -27
-3 -30 -7z m28 -343 c-3 -5 -12 -10 -18 -10 -7 0 -6 4 3 10 19 12 23 12 15 0z"/>
<path d="M2585 1730 c-9 -14 -3 -144 8 -151 4 -3 1 -12 -8 -19 -13 -11 -15
-10 -10 2 4 10 -6 25 -27 41 -30 24 -34 25 -51 10 -17 -16 -17 -16 -11 3 6 17
4 16 -15 -3 -12 -13 -27 -23 -34 -22 -9 0 -9 2 1 6 6 2 12 9 12 14 0 23 -51
-29 -60 -61 -30 -106 6 -193 86 -206 34 -5 45 -2 72 21 18 15 33 22 33 16 1
-6 2 -17 3 -23 2 -22 60 -16 64 6 3 13 0 16 -10 10 -11 -6 -11 -5 0 8 9 12 12
59 10 184 l-3 169 -27 3 c-14 2 -29 -2 -33 -8z m-29 -148 c12 -27 13 -34 23
-90 11 -60 0 -81 -50 -101 -21 -8 -32 -5 -56 12 -28 20 -30 25 -29 84 1 60 2
64 32 78 18 8 34 22 38 30 6 18 32 10 42 -13z m-116 -62 c0 -5 -2 -10 -4 -10
-3 0 -8 5 -11 10 -3 6 -1 10 4 10 6 0 11 -4 11 -10z m-16 -26 c3 -8 2 -12 -4
-9 -6 3 -10 10 -10 16 0 14 7 11 14 -7z m-7 -66 c-3 -8 -6 -5 -6 6 -1 11 2 17
5 13 3 -3 4 -12 1 -19z m68 -48 c18 -7 19 -8 3 -15 -22 -9 -51 1 -43 15 7 12
13 12 40 0z m55 -10 c-8 -5 -19 -10 -25 -10 -5 0 -3 5 5 10 8 5 20 10 25 10 6
0 3 -5 -5 -10z"/>
<path d="M2520 1590 c0 -5 10 -15 23 -21 22 -12 22 -12 3 10 -21 23 -26 26
-26 11z"/>
<path d="M3110 1560 l0 -182 28 6 c27 6 27 6 4 -7 l-23 -13 24 -13 c49 -26 85
6 43 40 -16 13 -18 32 -20 180 l-1 164 -27 3 -28 3 0 -181z"/>
<path d="M1286 1705 c-13 -10 -15 -15 -6 -15 7 0 10 -3 7 -6 -4 -4 -13 -1 -22
6 -14 12 -19 7 -16 -13 1 -5 -3 -6 -7 -3 -13 8 -38 -24 -50 -64 -25 -88 -11
-171 41 -227 18 -20 44 -23 33 -4 -3 4 1 8 9 8 10 0 12 -4 5 -12 -25 -30 105
-49 134 -20 8 8 22 15 30 15 14 0 46 47 46 68 0 5 -12 14 -27 21 -16 7 -25 9
-21 5 4 -4 3 -13 -2 -20 -6 -6 -9 -18 -8 -25 2 -11 -16 -14 -82 -15 -47 0 -92
-4 -100 -9 -10 -5 -9 -1 3 12 15 17 16 23 4 45 -9 18 -10 45 -5 99 11 105 12
108 18 104 3 -2 23 0 45 4 51 9 101 -4 115 -30 6 -11 15 -17 21 -13 6 4 5 12
-3 22 -10 14 -10 15 2 5 18 -17 27 -16 34 2 4 10 -9 25 -36 45 -43 32 -64 38
-52 18 6 -10 4 -10 -7 0 -19 17 -29 15 -23 -5 5 -17 5 -17 -6 0 -13 21 -48 22
-74 2z m178 -41 c3 -8 2 -12 -4 -9 -6 3 -10 10 -10 16 0 14 7 11 14 -7z m-229
-14 c-3 -5 -12 -10 -18 -10 -7 0 -6 4 3 10 19 12 23 12 15 0z m11 -32 c4 -7 3
-8 -4 -4 -7 4 -12 2 -12 -5 0 -7 -3 -10 -6 -6 -6 5 3 27 11 27 2 0 7 -5 11
-12z m-7 -172 c-1 -19 -2 -18 -9 4 -4 14 -8 19 -9 12 -1 -10 -4 -10 -15 0 -10
9 -10 15 -3 20 16 10 37 -11 36 -36z m221 -51 c-7 -8 -20 -15 -29 -15 -11 0
-8 5 9 14 33 19 35 19 20 1z m-103 -41 c-3 -3 -12 -4 -19 -1 -8 3 -5 6 6 6 11
1 17 -2 13 -5z"/>
<path d="M2740 1561 c0 -106 4 -162 11 -167 8 -5 7 -9 -1 -14 -7 -4 -10 -15
-7 -24 5 -13 22 -16 82 -16 144 0 207 34 204 112 l-1 33 -8 -30 -8 -30 -1 31
c0 17 -8 37 -16 44 -9 7 -13 15 -10 18 3 3 12 -3 20 -14 8 -10 15 -14 15 -8 0
6 -6 17 -14 23 -18 15 -79 24 -71 11 4 -6 1 -10 -5 -10 -7 0 -10 6 -7 13 2 6
10 12 18 12 17 0 71 64 64 76 -3 4 -14 6 -25 4 -12 -2 -18 0 -15 5 3 5 14 7
25 5 23 -5 24 -4 8 30 -6 15 -17 24 -25 21 -7 -3 -12 0 -10 7 3 18 -110 34
-134 19 -10 -7 -22 -12 -26 -12 -5 0 -1 5 7 10 11 7 4 10 -27 10 l-43 0 0
-159z m203 132 c-7 -2 -19 -2 -25 0 -7 3 -2 5 12 5 14 0 19 -2 13 -5z m-15
-36 c7 -6 12 -27 11 -52 -2 -37 -5 -42 -26 -39 -13 1 -23 -2 -23 -7 0 -4 -6
-6 -13 -3 -8 3 -27 6 -43 7 -30 2 -31 9 -25 94 1 6 18 13 39 15 41 4 61 0 80
-15z m57 -57 c3 -5 -1 -10 -10 -10 -9 0 -13 5 -10 10 3 6 8 10 10 10 2 0 7 -4
10 -10z m-228 -72 c-3 -7 -5 -2 -5 12 0 14 2 19 5 13 2 -7 2 -19 0 -25z m130
6 c-3 -3 -12 -4 -19 -1 -8 3 -5 6 6 6 11 1 17 -2 13 -5z m68 -26 c15 -2 17
-59 3 -85 -10 -20 -19 -23 -79 -23 l-67 0 -4 55 c-1 30 -2 59 0 63 2 7 48 3
147 -10z m29 -130 c-3 -4 -11 -8 -17 -7 -9 0 -9 2 0 5 7 3 9 13 6 22 -4 14 -3
14 5 2 6 -8 8 -18 6 -22z"/>
<path d="M1816 1619 c3 -5 -2 -6 -11 -3 -19 7 -57 -24 -48 -39 3 -5 1 -7 -4
-4 -18 11 -36 -22 -40 -71 -3 -49 13 -106 27 -97 5 3 12 0 16 -6 5 -8 3 -9 -6
-4 -8 5 -11 3 -8 -6 7 -22 69 -49 113 -48 35 0 37 1 17 10 -13 5 -29 6 -34 2
-7 -4 -8 -1 -3 7 6 10 1 11 -21 6 -16 -4 -25 -4 -21 0 4 4 26 9 49 10 22 1 35
-1 29 -6 -9 -5 -3 -9 16 -13 22 -5 34 0 57 25 24 24 29 40 32 86 4 74 -16 116
-65 141 -37 19 -105 26 -95 10z m1 -25 c-3 -3 -12 -4 -19 -1 -8 3 -5 6 6 6 11
1 17 -2 13 -5z m116 -8 c16 -12 15 -13 -10 -13 -16 0 -22 2 -14 5 11 4 11 6 0
13 -8 5 -9 9 -4 9 6 -1 18 -7 28 -14z m-25 -47 c19 -35 11 -111 -13 -130 -31
-25 -48 -27 -77 -13 -33 17 -50 46 -41 70 5 13 3 15 -8 9 -11 -6 -12 -5 -1 6
6 7 12 22 12 34 1 27 23 55 44 55 10 0 14 4 11 10 -3 5 9 3 27 -4 18 -8 39
-24 46 -37z"/>
<path d="M3352 1624 c-6 -3 -10 -10 -7 -15 4 -5 0 -6 -8 -4 -18 8 -61 -31 -51
-46 4 -7 3 -9 -4 -5 -15 9 -24 -43 -18 -99 7 -54 12 -65 32 -65 8 0 13 -4 10
-9 -3 -5 1 -14 9 -21 12 -10 18 -10 30 0 13 11 14 10 9 -4 -10 -27 79 -22 107
7 12 12 19 16 15 10 -16 -29 3 -10 28 27 43 66 29 166 -30 205 -25 16 -101 28
-122 19z m65 -28 c-17 -13 -16 -15 12 -27 35 -15 40 -30 34 -90 -2 -24 -5 -55
-5 -69 0 -14 -2 -20 -5 -14 -3 9 -12 9 -34 1 -38 -15 -103 16 -94 44 4 11 -2
25 -14 36 -12 10 -21 22 -21 28 0 5 5 3 10 -5 9 -13 11 -13 20 0 6 8 8 23 6
32 -2 11 7 22 29 32 18 9 38 22 45 31 7 8 18 15 24 15 6 0 3 -7 -7 -14z m61
-8 c7 -7 12 -16 12 -22 0 -5 -6 -1 -14 9 -8 11 -19 16 -30 12 -10 -4 -15 -3
-11 3 8 14 28 13 43 -2z m-118 -8 c-8 -5 -19 -10 -25 -10 -5 0 -3 5 5 10 8 5
20 10 25 10 6 0 3 -5 -5 -10z m-40 -60 c0 -5 -2 -10 -4 -10 -3 0 -8 5 -11 10
-3 6 -1 10 4 10 6 0 11 -4 11 -10z m16 -136 c-4 -9 -9 -15 -11 -12 -3 3 -3 13
1 22 4 9 9 15 11 12 3 -3 3 -13 -1 -22z"/>
<path d="M3695 1623 c-34 -9 -75 -44 -75 -64 0 -13 -4 -18 -11 -13 -9 5 -10
-1 -5 -20 4 -18 3 -25 -4 -21 -18 11 -11 -46 12 -91 14 -28 33 -49 55 -59 40
-19 99 -17 95 4 -3 12 -1 12 14 0 14 -12 19 -10 40 16 30 37 30 39 -2 54 -24
10 -26 10 -19 -6 15 -39 14 -52 -3 -46 -10 4 -12 8 -4 11 7 2 10 7 7 12 -3 5
-18 3 -33 -2 -62 -24 -107 17 -105 94 2 52 30 82 77 82 33 0 42 13 21 28 -15
12 7 10 25 -2 8 -5 10 -10 3 -10 -13 0 -11 -26 3 -40 7 -7 17 -5 31 7 18 17
19 19 4 35 -30 31 -78 43 -126 31z m-24 -30 c-11 -5 -11 -7 0 -15 11 -8 10 -9
-3 -4 -10 3 -22 -2 -27 -12 -6 -9 -11 -13 -11 -8 0 14 31 46 44 45 6 0 5 -3
-3 -6z m-54 -125 c2 -17 0 -19 -7 -8 -5 8 -6 18 -4 22 8 12 10 10 11 -14z m30
-67 c0 -11 -5 -18 -9 -15 -4 3 -5 11 -1 19 7 21 12 19 10 -4z m48 -39 c-3 -3
-11 0 -18 7 -9 10 -8 11 6 5 10 -3 15 -9 12 -12z"/>
<path d="M2060 1505 c0 -111 1 -117 25 -141 22 -22 32 -25 68 -20 42 6 74 33
59 48 -5 5 -23 3 -41 -3 -25 -9 -30 -14 -19 -21 10 -8 10 -9 -2 -5 -8 2 -14
10 -12 17 1 7 -3 19 -9 27 -9 10 -12 47 -10 114 l2 99 -30 0 -31 0 0 -115z
m140 -124 c0 -5 -7 -12 -16 -15 -14 -5 -15 -4 -4 9 14 17 20 19 20 6z"/>
<path d="M2242 1543 c-1 -43 -7 -93 -13 -112 -8 -22 -8 -36 -1 -40 5 -3 11
-15 13 -26 3 -14 12 -20 29 -20 l25 0 3 138 3 137 -29 0 -28 0 -2 -77z"/>
</g>
</svg>
