<?xml version="1.0" standalone="no"?>
<!DOCTYPE svg PUBLIC "-//W3C//DTD SVG 20010904//EN"
 "http://www.w3.org/TR/2001/REC-SVG-20010904/DTD/svg10.dtd">
<svg version="1.0" xmlns="http://www.w3.org/2000/svg"
 width="512.000000pt" height="512.000000pt" viewBox="0 0 512.000000 512.000000"
 preserveAspectRatio="xMidYMid meet">

<g transform="translate(0.000000,512.000000) scale(0.100000,-0.100000)"
fill="#000000" stroke="none">
<path d="M3045 3722 c99 -198 55 -448 -107 -610 -165 -166 -408 -204 -622 -98
l-70 34 175 -174 175 -174 50 0 c70 0 216 -33 309 -69 360 -139 620 -451 691
-827 21 -113 24 -315 5 -368 -17 -49 -73 -111 -125 -139 l-41 -22 -903 -3
c-577 -1 -917 1 -940 8 -20 5 -37 8 -37 7 -1 -1 289 -247 645 -547 l647 -545
49 3 c72 4 251 48 399 99 577 199 1069 628 1349 1176 34 67 77 160 95 206 l32
84 -29 31 c-16 17 -413 461 -882 986 -469 525 -861 964 -872 975 -15 16 -14 9
7 -33z"/>
</g>
</svg>
